<?xml version="1.0" encoding="utf-8"?>
<!-- Generator: Adobe Illustrator 26.1.0, SVG Export Plug-In . SVG Version: 6.00 Build 0)  -->
<svg version="1.1" id="Lager_1" xmlns="http://www.w3.org/2000/svg" xmlns:xlink="http://www.w3.org/1999/xlink" x="0px" y="0px"
	 viewBox="0 0 372.7 122.6" style="enable-background:new 0 0 372.7 122.6;" xml:space="preserve">
<style type="text/css">
	.st0{fill:none;}
	.st1{fill:#F09A04;}
</style>
<rect x="-32.6" y="-159.9" class="st0" width="439.9" height="439.9"/>
<g>
	<path class="st1" d="M65.6,10.7h15.6v85.9H65.6V58.5H28.3v38.1H12.7V10.7h15.6V45h37.3V10.7z"/>
	<path class="st1" d="M154.3,94.6c-2.9,0.7-6.7,1.5-11.3,2.3c-4.6,0.8-9.7,1.2-15.3,1.2c-5.2,0-9.6-0.7-13.1-2.2
		c-3.5-1.5-6.3-3.6-8.4-6.2c-2.1-2.6-3.6-5.8-4.5-9.5c-0.9-3.7-1.4-7.7-1.4-12.1V31.8h15v34c0,6.9,1,11.9,3,14.9
		c2,3,5.6,4.5,10.6,4.5c1.8,0,3.7-0.1,5.8-0.2c2-0.2,3.5-0.4,4.5-0.6V31.8h15V94.6z"/>
	<path class="st1" d="M210.3,45.3c-1.2-0.4-3-0.8-5.1-1.3c-2.2-0.5-4.7-0.7-7.6-0.7c-1.7,0-3.4,0.2-5.3,0.5
		c-1.9,0.3-3.2,0.6-3.9,0.9v52h-15V34.9c2.9-1.1,6.5-2.1,10.9-3c4.3-0.9,9.2-1.4,14.4-1.4c1,0,2.1,0.1,3.5,0.2
		c1.3,0.1,2.6,0.3,4,0.5c1.3,0.2,2.6,0.5,3.8,0.7c1.2,0.3,2.2,0.6,3,0.8L210.3,45.3z"/>
	<path class="st1" d="M222.6,14.7l15-2.5v19.6h23.1v12.5h-23.1v26.4c0,5.2,0.8,8.9,2.5,11.2c1.7,2.2,4.5,3.3,8.4,3.3
		c2.7,0,5.1-0.3,7.3-0.9c2.1-0.6,3.8-1.1,5-1.6l2.5,11.9c-1.7,0.7-4,1.5-6.8,2.3c-2.8,0.8-6.1,1.2-9.9,1.2c-4.6,0-8.5-0.6-11.6-1.9
		c-3.1-1.2-5.6-3-7.4-5.4c-1.8-2.4-3.1-5.2-3.8-8.6c-0.7-3.3-1.1-7.2-1.1-11.5V14.7z"/>
	<path class="st1" d="M291.9,12.8c0,2.8-0.9,5-2.7,6.7c-1.8,1.7-4,2.5-6.4,2.5c-2.6,0-4.8-0.8-6.6-2.5c-1.8-1.7-2.7-3.9-2.7-6.7
		c0-2.9,0.9-5.2,2.7-6.8c1.8-1.7,4-2.5,6.6-2.5c2.5,0,4.6,0.8,6.4,2.5C291,7.6,291.9,9.9,291.9,12.8z M290.3,96.6h-15V31.8h15V96.6z
		"/>
	<path class="st1" d="M363,90c0,10.3-2.6,17.9-7.9,22.7c-5.3,4.8-13.3,7.2-24.1,7.2c-4,0-7.8-0.3-11.6-1c-3.8-0.7-7.2-1.5-10.2-2.6
		l2.7-12.8c2.6,1.1,5.5,1.9,8.7,2.6c3.3,0.7,6.8,1,10.6,1c6,0,10.3-1.2,12.9-3.7c2.6-2.5,3.8-6.2,3.8-11v-2.5
		c-1.5,0.7-3.5,1.5-5.9,2.2c-2.4,0.7-5.2,1.1-8.4,1.1c-4.1,0-7.9-0.7-11.3-2c-3.4-1.3-6.4-3.3-8.8-5.8c-2.4-2.6-4.3-5.8-5.7-9.6
		s-2-8.3-2-13.3c0-4.7,0.7-9.1,2.2-13c1.4-4,3.6-7.4,6.3-10.2c2.8-2.8,6.1-5,10.1-6.6c4-1.6,8.5-2.4,13.5-2.4
		c4.9,0,9.5,0.4,13.9,1.1c4.4,0.7,8.1,1.5,11.2,2.4V90z M321.2,62.5c0,6.4,1.4,11,4.2,14c2.8,2.9,6.3,4.4,10.7,4.4
		c2.4,0,4.7-0.3,6.8-1c2.1-0.7,3.8-1.4,5.1-2.4V43.9c-1.1-0.2-2.4-0.5-4-0.7c-1.6-0.2-3.6-0.3-6-0.3c-5.5,0-9.6,1.8-12.5,5.4
		C322.6,51.9,321.2,56.6,321.2,62.5z"/>
</g>
</svg>
